<svg width="512" height="512" viewBox="0 0 512 512" fill="none" xmlns="http://www.w3.org/2000/svg">
  <defs>
    <linearGradient id="bg" x1="0" y1="0" x2="512" y2="512" gradientUnits="userSpaceOnUse">
      <stop stop-color="#0A1628"/>
      <stop offset="1" stop-color="#112347"/>
    </linearGradient>
    <linearGradient id="brand" x1="122" y1="96" x2="388" y2="416" gradientUnits="userSpaceOnUse">
      <stop stop-color="#00D4FF"/>
      <stop offset="1" stop-color="#1A6FD4"/>
    </linearGradient>
    <linearGradient id="fire" x1="256" y1="140" x2="256" y2="368" gradientUnits="userSpaceOnUse">
      <stop stop-color="#FF7A1A"/>
      <stop offset="1" stop-color="#FF5500"/>
    </linearGradient>
  </defs>
  <rect x="16" y="16" width="480" height="480" rx="96" fill="url(#bg)"/>
  <path d="M256 92L362 152V272C362 340 313 390 256 420C199 390 150 340 150 272V152L256 92Z" fill="url(#brand)" fill-opacity="0.22" stroke="#00D4FF" stroke-width="14"/>
  <path d="M256 146C287 186 304 219 304 255C304 311 263 348 205 348C237 325 251 297 251 268C251 245 242 226 223 203C211 236 197 258 182 273C180 230 208 188 256 146Z" fill="url(#fire)"/>
  <circle cx="320" cy="192" r="28" fill="#00D4FF" fill-opacity="0.85"/>
  <path d="M320 152V232M280 192H360" stroke="#E9FAFF" stroke-width="10" stroke-linecap="round"/>
  <path d="M182 206L202 226M182 246L202 226M162 226H202" stroke="#9BEFFF" stroke-width="8" stroke-linecap="round"/>
</svg>
